<?xml version="1.0" standalone="no"?>
<!DOCTYPE svg PUBLIC "-//W3C//DTD SVG 20010904//EN"
 "http://www.w3.org/TR/2001/REC-SVG-20010904/DTD/svg10.dtd">
<svg version="1.0" xmlns="http://www.w3.org/2000/svg"
 width="1200.000000pt" height="1200.000000pt" viewBox="0 0 1200.000000 1200.000000"
 preserveAspectRatio="xMidYMid meet">

<g transform="translate(0.000000,1200.000000) scale(0.100000,-0.100000)"
fill="#000000" stroke="none">
<path d="M5818 9470 c-98 -25 -192 -67 -276 -126 -92 -64 -4512 -4484 -4576
-4575 -122 -175 -174 -387 -146 -599 15 -113 39 -189 93 -295 38 -74 65 -105
386 -428 230 -232 369 -364 415 -394 267 -178 645 -177 923 3 38 25 622 600
1726 1703 l1667 1666 1668 -1666 c917 -917 1689 -1681 1715 -1699 65 -43 178
-94 257 -116 101 -28 339 -26 443 4 107 30 220 89 308 160 104 84 638 626 681
692 147 227 182 498 97 755 -66 199 87 38 -2392 2519 -1971 1973 -2251 2250
-2318 2290 -153 93 -279 126 -471 125 -85 0 -147 -6 -200 -19z"/>
</g>
</svg>
