<?xml version="1.0" standalone="no"?>
<!DOCTYPE svg PUBLIC "-//W3C//DTD SVG 20010904//EN"
 "http://www.w3.org/TR/2001/REC-SVG-20010904/DTD/svg10.dtd">
<svg version="1.0" xmlns="http://www.w3.org/2000/svg"
 width="219.000000pt" height="230.000000pt" viewBox="0 0 219.000000 230.000000"
 preserveAspectRatio="xMidYMid meet">

<g transform="translate(0.000000,230.000000) scale(0.100000,-0.100000)"
fill="#000000" stroke="none">
<path d="M890 2175 c-36 -8 -99 -26 -140 -41 -541 -190 -825 -781 -639 -1325
50 -146 124 -265 242 -386 133 -137 271 -221 463 -280 84 -25 100 -27 279 -27
179 0 195 2 279 27 185 57 327 141 454 269 358 357 409 906 125 1330 -129 192
-340 343 -578 414 -78 23 -111 27 -255 30 -118 3 -183 -1 -230 -11z m440 -90
c281 -76 517 -272 636 -529 140 -303 113 -658 -72 -938 l-38 -57 -58 55 c-271
250 -660 338 -1013 227 -145 -46 -282 -125 -393 -227 l-58 -55 -44 67 c-56 85
-114 224 -135 327 -22 105 -22 285 0 390 79 378 373 670 755 751 90 18 333 12
420 -11z"/>
<path d="M973 1771 c-307 -106 -339 -527 -51 -681 55 -30 74 -35 153 -38 75
-3 100 0 148 18 117 44 203 140 233 260 46 180 -56 374 -230 439 -72 27 -180
28 -253 2z"/>
</g>
</svg>
