<svg width="20px" height="20px" viewBox="0 0 15 14" fill="none" xmlns="http://www.w3.org/2000/svg">
<path d="M10.6694 4.16888C9.13351 4.16888 8.44517 5.04734 8.06052 5.66388L8.06035 5.69457H8.0413L8.06052 5.66388L8.06035 4.38108H5.16544C5.20344 5.23125 5.16544 13.434 5.16544 13.434H8.06035V8.37834C8.06035 8.10866 8.0793 7.83752 8.15569 7.64461C8.36496 7.10341 8.84147 6.5433 9.64111 6.5433C10.6888 6.5433 11.1077 7.37457 11.1077 8.59197V13.434H14.0024V8.24403C14.0024 5.46274 12.5741 4.16888 10.6694 4.16888ZM3.5636 13.434V4.38108H0.668772V13.434H3.5636ZM2.11618 3.1451C3.12554 3.1451 3.75391 2.44996 3.75391 1.58157C3.73496 0.69352 3.12554 0.0173035 2.13542 0.0173035C1.14502 0.0173035 0.497604 0.69352 0.497604 1.58157C0.497604 2.44996 1.12586 3.1451 2.09731 3.1451H2.11618Z" fill="#fff"/>
</svg>
