<?xml version="1.0" standalone="no"?>
<!DOCTYPE svg PUBLIC "-//W3C//DTD SVG 20010904//EN"
 "http://www.w3.org/TR/2001/REC-SVG-20010904/DTD/svg10.dtd">
<svg version="1.0" xmlns="http://www.w3.org/2000/svg"
 width="256.000000pt" height="256.000000pt" viewBox="0 0 256.000000 256.000000"
 preserveAspectRatio="xMidYMid meet">

<g transform="translate(0.000000,256.000000) scale(0.100000,-0.100000)"
fill="#000000" stroke="none">
<path d="M1317 2499 c-54 -13 -113 -45 -131 -71 -13 -18 -16 -56 -16 -208 l0
-185 -151 -327 c-84 -181 -156 -328 -160 -328 -5 0 -9 9 -9 20 0 10 -9 24 -19
30 -13 6 -160 10 -409 10 -364 0 -390 -1 -405 -18 -15 -17 -17 -79 -17 -680
l0 -661 22 -15 c19 -14 75 -16 409 -16 449 0 420 -7 427 106 4 56 7 64 21 58
117 -51 84 -49 696 -52 513 -3 574 -1 613 14 119 45 184 170 149 285 l-14 45
33 22 c19 12 47 46 64 74 24 44 30 64 30 116 0 35 -5 72 -10 82 -9 16 -2 28
44 72 36 36 58 66 65 93 22 79 8 163 -34 213 -23 28 -23 28 -4 52 33 43 52
117 46 180 -9 100 -65 177 -162 222 -49 22 -59 23 -408 26 l-359 4 6 21 c26
89 57 236 66 309 16 132 -5 237 -69 335 -38 59 -115 134 -161 158 -36 18 -108
25 -153 14z m124 -128 c52 -32 122 -130 141 -194 27 -93 6 -256 -59 -470 l-37
-118 22 -22 c22 -22 26 -22 435 -27 464 -6 447 -3 487 -84 35 -73 21 -133 -44
-195 -46 -45 -46 -72 0 -107 107 -82 76 -216 -58 -248 -19 -4 -30 -15 -34 -32
-6 -24 -2 -36 31 -94 8 -14 15 -44 15 -67 0 -52 -44 -108 -93 -118 -69 -15
-84 -54 -42 -110 52 -67 38 -153 -30 -195 -31 -19 -48 -20 -571 -20 -335 0
-556 4 -584 11 -25 6 -71 22 -102 36 l-58 26 0 453 0 454 44 22 45 21 163 351
163 351 5 190 5 189 40 12 c58 18 67 17 116 -15z"/>
</g>
</svg>
