<?xml version="1.0" standalone="no"?>
<!DOCTYPE svg PUBLIC "-//W3C//DTD SVG 20010904//EN"
 "http://www.w3.org/TR/2001/REC-SVG-20010904/DTD/svg10.dtd">
<svg version="1.0" xmlns="http://www.w3.org/2000/svg"
 width="200.000000pt" height="200.000000pt" viewBox="0 0 200.000000 200.000000"
 preserveAspectRatio="xMidYMid meet">

<g transform="translate(0.000000,200.000000) scale(0.100000,-0.100000)"
fill="#000000" stroke="none">
<path d="M1000 1460 c0 -99 0 -100 24 -100 47 0 201 -52 288 -97 49 -25 90
-44 92 -42 13 17 108 162 112 172 3 9 -17 25 -55 45 -121 65 -247 102 -393
116 l-68 7 0 -101z"/>
<path d="M840 1543 c-103 -17 -350 -111 -350 -133 0 -3 13 -27 30 -53 l29 -46
41 14 c67 24 198 45 276 45 l74 0 0 90 0 90 -37 -1 c-21 -1 -49 -4 -63 -6z"/>
<path d="M330 1284 c-94 -91 -181 -209 -225 -307 -13 -32 -23 -57 -21 -57 2 0
16 19 31 43 37 56 158 180 219 225 26 19 74 49 106 66 l58 31 -25 43 c-14 23
-31 42 -39 42 -7 0 -54 -39 -104 -86z"/>
<path d="M1512 1278 l-61 -92 78 -77 c82 -80 140 -157 185 -246 16 -33 33 -53
44 -53 48 0 175 25 179 36 7 18 -44 139 -96 228 -44 76 -183 235 -241 276
l-27 20 -61 -92z"/>
<path d="M1565 906 c-27 -13 -209 -90 -404 -172 -250 -105 -358 -156 -368
-171 -17 -26 -11 -63 13 -87 37 -37 66 -24 429 203 414 260 434 274 330 227z"/>
</g>
</svg>
